<?xml version="1.0" standalone="no"?>
<!DOCTYPE svg PUBLIC "-//W3C//DTD SVG 20010904//EN"
 "http://www.w3.org/TR/2001/REC-SVG-20010904/DTD/svg10.dtd">
<svg version="1.0" xmlns="http://www.w3.org/2000/svg"
 width="41.000000pt" height="38.000000pt" viewBox="0 0 41.000000 38.000000"
 preserveAspectRatio="xMidYMid meet">

<g transform="translate(0.000000,38.000000) scale(0.100000,-0.100000)"
fill="#000000" stroke="none">
<path d="M154 291 c-68 -29 -86 -126 -35 -183 26 -29 36 -33 79 -33 57 0 86
20 109 73 17 41 5 87 -31 121 -26 25 -89 36 -122 22z m85 -38 c12 -11 23 -36
27 -60 6 -39 4 -42 -24 -57 -63 -33 -106 -15 -115 47 -5 32 -2 43 18 63 28 28
65 31 94 7z"/>
</g>
</svg>
